<?xml version="1.0" encoding="utf-8"?>
<!-- Generator: Adobe Illustrator 19.0.0, SVG Export Plug-In . SVG Version: 6.00 Build 0)  -->
<svg version="1.1" id="图层_1" xmlns="http://www.w3.org/2000/svg" xmlns:xlink="http://www.w3.org/1999/xlink" x="0px" y="0px"
	 width="80px" height="80px" viewBox="-257 380.9 80 80" style="enable-background:new -257 380.9 80 80;" xml:space="preserve">
<style type="text/css">
	.st0{opacity:0.5;}
	.st1{fill:none;}
	.st2{fill:#333333;}
	.st3{fill:#D20A2C;}
</style>
<title>二维码</title>
<g class="st0">
	<rect x="-257" y="380.9" class="st1" width="40" height="40"/>
	<g id="二维码">
		<path id="Combined-Shape" class="st2" d="M-240.5,401.6c1.5,0,2.8,1.2,2.8,2.8l0,0v4c0,1.5-1.2,2.8-2.8,2.8l0,0h-4
			c-1.5,0-2.8-1.2-2.8-2.8l0,0v-4c0-1.5,1.2-2.8,2.8-2.8l0,0H-240.5z M-228,402.1c0.4,0,0.7,0.3,0.7,0.6v0.1v6.5
			c0,0.4-0.3,0.8-0.8,0.8c-0.4,0-0.7-0.3-0.7-0.6v-0.1v-6.5C-228.8,402.5-228.4,402.1-228,402.1z M-240.5,403.1h-4
			c-0.7,0-1.3,0.6-1.3,1.3l0,0v4c0,0.7,0.6,1.3,1.3,1.3l0,0h4c0.7,0,1.3-0.6,1.3-1.3l0,0v-4C-239.3,403.7-239.8,403.1-240.5,403.1
			L-240.5,403.1z M-235,402.1c0.4,0,0.7,0.3,0.7,0.6v0.1v5.5c0,0.4-0.3,0.8-0.8,0.8c-0.4,0-0.7-0.3-0.7-0.6v-0.1v-5.5
			C-235.8,402.5-235.4,402.1-235,402.1z M-231.5,402.6c0.4,0,0.7,0.3,0.7,0.6v0.1v3c0,0.4-0.3,0.8-0.8,0.8c-0.4,0-0.7-0.3-0.7-0.6
			v-0.1v-3C-232.3,403-231.9,402.6-231.5,402.6z M-240.5,390.6c1.5,0,2.8,1.2,2.8,2.8l0,0v4c0,1.5-1.2,2.8-2.8,2.8l0,0h-4
			c-1.5,0-2.8-1.2-2.8-2.8l0,0v-4c0-1.5,1.2-2.8,2.8-2.8l0,0H-240.5z M-229.5,390.6c1.5,0,2.8,1.2,2.8,2.8l0,0v4
			c0,1.5-1.2,2.8-2.8,2.8l0,0h-4c-1.5,0-2.8-1.2-2.8-2.8l0,0v-4c0-1.5,1.2-2.8,2.8-2.8l0,0H-229.5z M-240.5,392.1h-4
			c-0.7,0-1.3,0.6-1.3,1.3l0,0v4c0,0.7,0.6,1.3,1.3,1.3l0,0h4c0.7,0,1.3-0.6,1.3-1.3l0,0v-4C-239.3,392.7-239.8,392.1-240.5,392.1
			L-240.5,392.1z M-229.5,392.1h-4c-0.7,0-1.3,0.6-1.3,1.3l0,0v4c0,0.7,0.6,1.3,1.3,1.3l0,0h4c0.7,0,1.3-0.6,1.3-1.3l0,0v-4
			C-228.3,392.7-228.8,392.1-229.5,392.1L-229.5,392.1z"/>
	</g>
</g>
<g>
	<rect x="-257" y="420.9" class="st1" width="40" height="40"/>
	<g id="二维码-hover">
		<path id="Combined-Shape_1_" class="st3" d="M-240.5,441.6c1.5,0,2.8,1.2,2.8,2.8l0,0v4c0,1.5-1.2,2.8-2.8,2.8l0,0h-4
			c-1.5,0-2.8-1.2-2.8-2.8l0,0v-4c0-1.5,1.2-2.8,2.8-2.8l0,0H-240.5z M-228,442.1c0.4,0,0.7,0.3,0.7,0.6v0.1v6.5
			c0,0.4-0.3,0.8-0.8,0.8c-0.4,0-0.7-0.3-0.7-0.6v-0.1v-6.5C-228.8,442.5-228.4,442.1-228,442.1z M-240.5,443.1h-4
			c-0.7,0-1.3,0.6-1.3,1.3l0,0v4c0,0.7,0.6,1.3,1.3,1.3l0,0h4c0.7,0,1.3-0.6,1.3-1.3l0,0v-4C-239.3,443.7-239.8,443.1-240.5,443.1
			L-240.5,443.1z M-235,442.1c0.4,0,0.7,0.3,0.7,0.6v0.1v5.5c0,0.4-0.3,0.8-0.8,0.8c-0.4,0-0.7-0.3-0.7-0.6v-0.1v-5.5
			C-235.8,442.5-235.4,442.1-235,442.1z M-231.5,442.6c0.4,0,0.7,0.3,0.7,0.6v0.1v3c0,0.4-0.3,0.8-0.8,0.8c-0.4,0-0.7-0.3-0.7-0.6
			v-0.1v-3C-232.3,443-231.9,442.6-231.5,442.6z M-240.5,430.6c1.5,0,2.8,1.2,2.8,2.8l0,0v4c0,1.5-1.2,2.8-2.8,2.8l0,0h-4
			c-1.5,0-2.8-1.2-2.8-2.8l0,0v-4c0-1.5,1.2-2.8,2.8-2.8l0,0H-240.5z M-229.5,430.6c1.5,0,2.8,1.2,2.8,2.8l0,0v4
			c0,1.5-1.2,2.8-2.8,2.8l0,0h-4c-1.5,0-2.8-1.2-2.8-2.8l0,0v-4c0-1.5,1.2-2.8,2.8-2.8l0,0H-229.5z M-240.5,432.1h-4
			c-0.7,0-1.3,0.6-1.3,1.3l0,0v4c0,0.7,0.6,1.3,1.3,1.3l0,0h4c0.7,0,1.3-0.6,1.3-1.3l0,0v-4C-239.3,432.7-239.8,432.1-240.5,432.1
			L-240.5,432.1z M-229.5,432.1h-4c-0.7,0-1.3,0.6-1.3,1.3l0,0v4c0,0.7,0.6,1.3,1.3,1.3l0,0h4c0.7,0,1.3-0.6,1.3-1.3l0,0v-4
			C-228.3,432.7-228.8,432.1-229.5,432.1L-229.5,432.1z"/>
	</g>
</g>
<g class="st0">
	<rect x="-217" y="380.9" class="st1" width="40" height="40"/>
	<g id="以旧换新">
		<path id="Combined-Shape_2_" class="st2" d="M-197,389.1c6.5,0,11.8,5.3,11.8,11.8s-5.3,11.8-11.8,11.8s-11.8-5.3-11.8-11.8
			S-203.5,389.1-197,389.1z M-197,390.6c-5.7,0-10.3,4.6-10.3,10.3s4.6,10.3,10.3,10.3s10.3-4.6,10.3-10.3S-191.3,390.6-197,390.6z
			 M-192,402.1c0.4,0,0.8,0.3,0.8,0.8c0,0.4-0.3,0.7-0.6,0.7h-0.1h-8.8l0.5,0.9c0.2,0.3,0.1,0.7-0.2,1l-0.1,0.1
			c-0.3,0.2-0.7,0.1-1-0.2l-0.1-0.1l-1-2c-0.2-0.5,0.1-1,0.6-1.1h0.1L-192,402.1L-192,402.1z M-192.4,396.5L-192.4,396.5l1.1,2.1
			c0.2,0.5-0.1,1-0.6,1.1h-0.1h-10c-0.4,0-0.8-0.3-0.8-0.8c0-0.4,0.3-0.7,0.6-0.7h0.1h8.8l-0.5-0.9c-0.2-0.3-0.1-0.7,0.2-1l0.1-0.1
			C-193,396-192.6,396.2-192.4,396.5z"/>
	</g>
</g>
<g>
	<rect x="-217" y="420.9" class="st1" width="40" height="40"/>
	<g id="以旧换新-hover">
		<path id="Combined-Shape_3_" class="st3" d="M-197,429.1c6.5,0,11.8,5.3,11.8,11.8s-5.3,11.8-11.8,11.8s-11.8-5.3-11.8-11.8
			S-203.5,429.1-197,429.1z M-197,430.6c-5.7,0-10.3,4.6-10.3,10.3s4.6,10.3,10.3,10.3s10.3-4.6,10.3-10.3S-191.3,430.6-197,430.6z
			 M-192,442.1c0.4,0,0.8,0.3,0.8,0.8c0,0.4-0.3,0.7-0.6,0.7h-0.1h-8.8l0.5,0.9c0.2,0.3,0.1,0.7-0.2,1l-0.1,0.1
			c-0.3,0.2-0.7,0.1-1-0.2l-0.1-0.1l-1-2c-0.2-0.5,0.1-1,0.6-1.1h0.1L-192,442.1L-192,442.1z M-192.4,436.5L-192.4,436.5l1.1,2.1
			c0.2,0.5-0.1,1-0.6,1.1h-0.1h-10c-0.4,0-0.8-0.3-0.8-0.8c0-0.4,0.3-0.7,0.6-0.7h0.1h8.8l-0.5-0.9c-0.2-0.3-0.1-0.7,0.2-1l0.1-0.1
			C-193,436-192.6,436.2-192.4,436.5z"/>
	</g>
</g>
</svg>
