<?xml version="1.0" encoding="UTF-8"?>
<svg width="100px" height="100px" viewBox="0 0 100 100" version="1.1" xmlns="http://www.w3.org/2000/svg" xmlns:xlink="http://www.w3.org/1999/xlink">
    <!-- Generator: Sketch 62 (91390) - https://sketch.com -->
    <title>ic_huaweiid_list_eye_filled2</title>
    <desc>Created with Sketch.</desc>
    <g id="ic_huaweiid_list_eye_filled2" stroke="none" stroke-width="1" fill="none" fill-rule="evenodd">
        <g id="bg"></g>
        <g id="分组" opacity="0.379999995" transform="translate(4.166667, 10.416667)">
            <path d="M80.6054605,79.2308011 L5.16957546,5.70589209 C3.83236374,4.40251572 3.83236374,2.28480763 5.16957546,0.979203269 C6.50907302,-0.32640109 8.67947051,-0.32640109 10.0189681,0.979203269 L85.4537102,74.5018842 C86.7932077,75.8074886 86.7932077,77.9263107 85.4537102,79.2308011 C84.1142126,80.5341774 81.9415293,80.5341774 80.6054605,79.2308011 Z" id="Fill-1-Copy" fill="#000000"></path>
            <g id="Page-1" transform="translate(0.000000, 13.541667)">
                <path d="M65.8058805,47.4346924 C59.4771613,50.3942385 52.4591663,52.0833333 45.2879249,52.0833333 C36.5223925,52.0833333 27.9860054,49.5552084 20.6574001,45.2683293 C13.3706813,41.0059517 7.26922795,35.0018088 3.3528063,27.9757995 C8.09887629,18.8037404 15.854906,11.8831876 25.0174861,7.65794053 L65.8058805,47.4346924 Z" id="Fill-1" stroke="#000000" stroke-width="6.25"></path>
                <g id="Group-5" transform="translate(29.437004, 0.000000)" fill="#000000">
                    <path d="M47.6579448,35.3397657 C50.0558701,32.9674598 52.126935,30.36799 53.806931,27.6124657 C46.6177046,15.8093535 32.7398291,7.54053323 18.2857471,6.69611036 L47.6579448,35.3397657 Z M15.8511473,-0.000220833333 C34.7293244,-0.000220833333 52.622494,10.9884458 60.8444757,26.3209042 C61.0398653,26.7345181 61.1388457,27.4029875 61.1388457,27.611675 C61.1388457,27.823675 61.1068156,28.2683533 60.8444757,28.9046542 C57.6471642,34.8693625 52.9847956,40.1737792 47.3713854,44.4292375 C45.3717143,42.4791658 43.8888665,41.0330984 42.9228423,40.0910352 L42.8453351,40.0157792 L47.6579448,35.3397657 L18.2857471,6.69609826 C16.9212083,6.69522737 15.4256193,6.74222046 13.7989802,6.83707751 C12.5128899,6.91207555 11.0327039,7.08508356 9.35842224,7.35610154 C9.27150835,7.27438257 9.18721601,7.19218101 9.10333734,7.11038285 C7.84155906,5.87990147 5.94889164,4.03417941 3.42533507,1.57321667 C7.45367584,0.54855 11.6269373,-0.000220833333 15.8511473,-0.000220833333 Z" id="Combined-Shape" fill-rule="nonzero"></path>
                    <path d="M7.31319228,14.584768 L29.2013248,35.9296129 C26.3808318,40.2165839 21.4501707,43.0625 15.8506944,43.0625 C7.11062153,43.0625 0,36.1289222 0,27.6041667 C0,22.1437977 2.9180497,17.3355688 7.31319228,14.584768 Z M8.96701389,19.5 C6.94114795,19.5 5.29885913,22.2329285 5.29885913,25.6041667 C5.29885913,28.9754048 6.94114795,31.7083333 8.96701389,31.7083333 C10.9928798,31.7083333 12.6351687,28.9754048 12.6351687,25.6041667 C12.6351687,22.2329285 10.9928798,19.5 8.96701389,19.5 Z M15.8506944,12.1458333 C24.5907674,12.1458333 31.7013889,19.0804417 31.7013889,27.6041667 C31.7013889,28.0547755 31.6815214,28.5009385 31.6425959,28.9418666 L14.4795335,12.2031423 C14.9314974,12.1651993 15.3888207,12.1458333 15.8506944,12.1458333 Z" id="Combined-Shape"></path>
                </g>
            </g>
        </g>
    </g>
</svg>