<?xml version="1.0" encoding="utf-8"?>
<!-- Generator: Adobe Illustrator 19.0.0, SVG Export Plug-In . SVG Version: 6.00 Build 0)  -->
<svg version="1.1" id="图层_1" xmlns="http://www.w3.org/2000/svg" xmlns:xlink="http://www.w3.org/1999/xlink" x="0px" y="0px"
	 width="279px" height="60px" viewBox="-158 390.9 279 60" style="enable-background:new -158 390.9 279 60;" xml:space="preserve">
<style type="text/css">
	.st0{fill:#A4A4A4;}
	.st1{fill:#FFFFFF;}
	.st2{fill:#303030;}
	.st3{fill:#393939;}
	.st4{fill:#343434;}
	.st5{fill:#969696;}
	.st6{fill:#787878;}
	.st7{fill:#CA141D;}
	.st8{fill:#A3A3A3;}
	.st9{fill:none;}
</style>
<title>icon03</title>
<g id="icon03">
	<g>
		<g id="WAP" transform="translate(7.000000, 0.000000)">
			<g id="编组">
				<g id="Fill-1" transform="translate(248.000000, 0.000000)">
					<path id="形状" class="st0" d="M-152.3,399.1c-0.1,0-0.2,0.1-0.2,0.2c-0.1,0.1-0.1,0.1-0.2,0.2c0,0.1-0.1,0.2-0.1,0.3
						s0,0.2,0.1,0.3c0,0.1,0.1,0.2,0.2,0.3c0.1,0.1,0.2,0.1,0.2,0.2c0.1,0,0.2,0.1,0.3,0.1s0.2,0,0.3-0.1c0.1,0,0.2-0.1,0.3-0.2
						c0.1-0.1,0.1-0.2,0.2-0.3c0.1-0.1,0.1-0.1,0.1-0.2c0-0.1,0-0.2-0.1-0.3c0-0.1-0.1-0.2-0.2-0.3c-0.1-0.1-0.1-0.1-0.2-0.2
						c-0.1,0-0.3,0-0.4,0S-152.2,399.1-152.3,399.1 M-154.3,391.4c-0.8,0.3-1.4,0.7-1.9,1.3c-0.6,0.5-1,1.2-1.3,1.9
						c-0.3,0.7-0.5,1.5-0.5,2.3c0,0.8,0.2,1.6,0.5,2.3s0.7,1.4,1.3,1.9c0.5,0.5,1.2,1,1.9,1.3c0.7,0.3,1.5,0.5,2.3,0.5
						s1.6-0.2,2.3-0.5c0.7-0.3,1.4-0.7,1.9-1.3c0.5-0.5,1-1.2,1.3-1.9s0.5-1.5,0.5-2.3c0-0.8-0.2-1.6-0.5-2.3
						c-0.3-0.7-0.7-1.4-1.3-1.9c-0.5-0.6-1.2-1-1.9-1.3c-0.7-0.3-1.5-0.5-2.3-0.5S-153.6,391.1-154.3,391.4 M-152.7,393.9v3.5
						c0,0.6,0.3,0.8,0.7,0.8c0.6,0,0.8-0.3,0.9-0.8v-3.5c-0.1-0.5-0.4-0.7-0.9-0.8C-152.5,393.2-152.7,393.4-152.7,393.9
						 M-148.5,393.4c1,0.9,1.5,2.1,1.5,3.5c0,1.4-0.5,2.6-1.5,3.5c-0.9,1-2.1,1.5-3.5,1.5s-2.6-0.5-3.6-1.5
						c-0.9-0.9-1.4-2.1-1.4-3.5c0-1.4,0.5-2.6,1.5-3.5c0.9-1,2.1-1.5,3.5-1.5S-149.4,392.4-148.5,393.4"/>
				</g>
				<path id="Fill-3" class="st1" d="M71.9,399.6l-5.5,5c-0.2,0.1-0.4,0.2-0.7,0.2s-0.5-0.1-0.6-0.2l-2.7-2.5
					c-0.2-0.2-0.3-0.4-0.3-0.7c0-0.3,0.1-0.5,0.2-0.7c0.2-0.2,0.4-0.3,0.7-0.3s0.5,0.1,0.7,0.2l2.1,1.9l4.9-4.4
					c0.2-0.2,0.4-0.3,0.7-0.2c0.3,0,0.5,0.1,0.7,0.3c0.2,0.2,0.2,0.5,0.2,0.8C72.3,399.2,72.1,399.4,71.9,399.6z"/>
				<path id="Fill-5" class="st2" d="M-24.3,404.1c0.2-0.1,0.2-0.3,0.2-0.5c0-0.2-0.1-0.4-0.2-0.5c-0.1-0.1-0.4-0.2-0.7-0.2
					c-0.2,0-0.4,0.1-0.5,0.2s-0.2,0.3-0.2,0.5c0,0.2,0.1,0.4,0.2,0.5s0.3,0.2,0.5,0.2C-24.6,404.3-24.4,404.3-24.3,404.1
					L-24.3,404.1z M-20.3,404.1c0.2-0.1,0.2-0.3,0.2-0.5c0-0.2-0.1-0.4-0.2-0.5c-0.2-0.1-0.4-0.2-0.7-0.2c-0.2,0-0.4,0.1-0.5,0.2
					s-0.2,0.3-0.2,0.5c0,0.2,0.1,0.4,0.2,0.5s0.3,0.2,0.5,0.2C-20.6,404.3-20.4,404.3-20.3,404.1L-20.3,404.1z M-16.8,405.3
					c0,0.8-0.3,1.6-0.7,2.3c-0.5,0.7-1.1,1.3-1.8,1.9l0.5,1.8l-2-1.1c-0.4,0.1-0.7,0.2-1.1,0.2c-0.4,0.1-0.7,0.1-1.1,0.1
					c-1.8,0-3.2-0.5-4.4-1.5c-1.2-1-1.8-2.2-1.8-3.7s0.6-2.7,1.8-3.7c1.2-1,2.6-1.5,4.4-1.5c1.7,0,3.1,0.6,4.3,1.5
					C-17.4,402.5-16.8,403.8-16.8,405.3L-16.8,405.3z M-27.3,397.6c-0.3,0-0.5,0.1-0.7,0.2c-0.2,0.2-0.3,0.4-0.3,0.7
					c0,0.3,0.1,0.5,0.3,0.7s0.5,0.2,0.7,0.2c0.3,0,0.5-0.1,0.7-0.2c0.2-0.2,0.2-0.4,0.2-0.7c0-0.3-0.1-0.5-0.2-0.7
					C-26.8,397.7-27,397.6-27.3,397.6L-27.3,397.6z M-31.7,399.2c0.2-0.2,0.2-0.4,0.2-0.7c0-0.3-0.1-0.5-0.2-0.7
					c-0.2-0.2-0.4-0.2-0.7-0.2c-0.3,0-0.5,0.1-0.7,0.2c-0.2,0.2-0.3,0.4-0.3,0.7c0,0.3,0.1,0.5,0.3,0.7c0.2,0.2,0.5,0.2,0.8,0.2
					C-32.1,399.5-31.9,399.4-31.7,399.2L-31.7,399.2z M-23.4,399.6L-23.4,399.6c-1.8,0-3.2,0.6-4.4,1.7s-1.7,2.4-1.8,4.1
					c0,0.5,0.1,1,0.2,1.5c-0.2,0-0.5,0-0.7,0c-0.4,0-0.9,0-1.3-0.1s-0.8-0.2-1.3-0.2l-2.5,1.3l0.7-2.2c-0.9-0.6-1.6-1.4-2.1-2.2
					c-0.5-0.8-0.8-1.7-0.8-2.7c0.1-1.8,0.8-3.2,2.1-4.4c1.4-1.2,3.1-1.8,5.1-1.8c1.8,0,3.4,0.5,4.8,1.4c1.4,0.9,2.2,2.1,2.6,3.6
					H-23.4L-23.4,399.6z"/>
				<polygon id="Fill-7" class="st3" points="-148.8,403.9 -156.1,411.4 -157.2,410.2 -151.3,403.9 -157.2,397.6 -156.1,396.4 				
					"/>
				<polygon id="Fill-9" class="st3" points="-133.2,403.9 -125.9,411.4 -124.8,410.2 -130.7,403.9 -124.8,397.6 -125.9,396.4 				
					"/>
				<path id="Fill-11" class="st2" d="M-110.9,393.4c-0.2-0.2-0.2-0.4-0.1-0.6c0.1-0.2,0.2-0.4,0.4-0.4c0.2-0.1,0.4,0,0.6,0.1l5,5
					c0,0.1,0.1,0.2,0.1,0.4c0,0.2-0.1,0.3-0.2,0.4l-5,5c-0.2,0.2-0.4,0.2-0.6,0.1c-0.2-0.1-0.4-0.2-0.4-0.4c-0.1-0.2,0-0.4,0.1-0.6
					l4.6-4.5L-110.9,393.4z"/>
				<path id="Fill-13" class="st4" d="M-96.4,394.3c-0.1-0.1-0.2-0.3-0.1-0.5c0-0.2,0.2-0.3,0.3-0.3c0.2,0,0.3,0,0.5,0.1l4,4
					c0.1,0.1,0.1,0.2,0.1,0.4c0,0.1,0,0.3-0.1,0.4l-4,4c-0.1,0.1-0.3,0.2-0.5,0.1c-0.2,0-0.3-0.2-0.3-0.3c0-0.2,0-0.3,0.1-0.5
					l3.7-3.8L-96.4,394.3z"/>
				<path id="Fill-15" class="st4" d="M-85.3,397.9l3.7,3.6c0.1,0.1,0.2,0.3,0.1,0.5c0,0.2-0.2,0.3-0.3,0.3c-0.2,0-0.3,0-0.5-0.1
					l-4-4c-0.1-0.1-0.1-0.2-0.1-0.4c0-0.2,0-0.3,0.1-0.4l4-4c0.1-0.1,0.3-0.2,0.5-0.1c0.2,0,0.3,0.2,0.3,0.3c0,0.2,0,0.3-0.1,0.5
					L-85.3,397.9z"/>
				<path id="Fill-17" class="st5" d="M-76.4,394.3c-0.1-0.1-0.2-0.3-0.1-0.5c0-0.2,0.2-0.3,0.3-0.3c0.2,0,0.3,0,0.5,0.1l4,4
					c0.1,0.1,0.1,0.2,0.1,0.4c0,0.1,0,0.3-0.1,0.4l-4,4c-0.1,0.1-0.3,0.2-0.5,0.1c-0.2,0-0.3-0.2-0.3-0.3c0-0.2,0-0.3,0.1-0.5
					l3.7-3.8L-76.4,394.3z"/>
				<path id="Fill-19" class="st5" d="M-65.3,397.9l3.7,3.6c0.1,0.1,0.2,0.3,0.1,0.5c0,0.2-0.2,0.3-0.3,0.3c-0.2,0-0.3,0-0.5-0.1
					l-4-4c-0.1-0.1-0.1-0.2-0.1-0.4c0-0.2,0-0.3,0.1-0.4l4-4c0.1-0.1,0.3-0.2,0.5-0.1c0.2,0,0.3,0.2,0.3,0.3c0,0.2,0,0.3-0.1,0.5
					L-65.3,397.9z"/>
				<path id="Fill-21" class="st1" d="M-47.7,407.4c0.3,0,0.5-0.1,0.6-0.3c0.1-0.2,0.1-0.5,0-0.7c-0.1-0.2-0.3-0.4-0.6-0.4
					c-0.2,0-0.3,0.1-0.5,0.2c-0.1,0.1-0.2,0.3-0.2,0.5s0.1,0.4,0.2,0.5C-48.1,407.4-47.9,407.4-47.7,407.4L-47.7,407.4z
					 M-42.9,399.6v0.1v3.8c0.4-0.1,0.7-0.4,1-0.7c0.3-0.4,0.4-0.8,0.4-1.3s-0.1-0.9-0.4-1.3C-42.2,400-42.5,399.7-42.9,399.6
					L-42.9,399.6z M-55.6,399.9c-0.3,0.2-0.5,0.5-0.7,0.8c-0.2,0.3-0.2,0.6-0.2,1s0.1,0.7,0.2,1c0.2,0.3,0.4,0.6,0.6,0.7
					L-55.6,399.9L-55.6,399.9z M-46.1,407.2c-0.1,0.4-0.4,0.7-0.7,1c-0.3,0.3-0.7,0.3-1.2,0.3c-0.4,0-0.8-0.2-1.1-0.5
					c-0.3-0.3-0.4-0.7-0.4-1.1c0-0.4,0.1-0.8,0.4-1.1c0.3-0.3,0.6-0.5,1-0.6s0.8,0,1.2,0.2c0.4,0.2,0.6,0.5,0.8,0.9
					c0.8-0.2,1.5-0.9,2.1-2.1v-4.5c0-1.5-0.6-2.8-1.6-3.8s-2.2-1.5-3.7-1.6c-1.5,0.1-2.7,0.6-3.7,1.6s-1.5,2.3-1.6,3.8v4.9
					c-0.1,0-0.2,0-0.3,0c-0.2,0.1-0.4,0-0.5-0.1c-0.6-0.2-1.1-0.6-1.5-1.1s-0.6-1.1-0.6-1.8c0-0.7,0.2-1.3,0.6-1.8s0.9-0.9,1.4-1.1
					c0.3-1.5,1-2.8,2.1-3.8s2.5-1.5,4.1-1.5c1.6,0,2.9,0.5,4,1.5c1.1,1,1.8,2.2,2.2,3.7c0.7,0.1,1.4,0.5,1.8,1
					c0.4,0.5,0.7,1.2,0.7,2c0,0.8-0.3,1.5-0.8,2.1s-1.1,0.9-1.9,1C-43.9,406.1-44.9,407-46.1,407.2L-46.1,407.2z"/>
				<path id="Fill-23" class="st2" d="M42.1,408.9v1.7c0,0.8-0.5,1.3-1.3,1.3c-0.8,0-1.3-0.5-1.3-1.3l0,0v-1.7h0.6v1.7
					c0,0.5,0.2,0.8,0.7,0.8c0.4,0,0.7-0.3,0.7-0.7l0,0v-1.7H42.1z M36.6,408.9v1.2H38v-1.2h0.6v3H38v-1.2h-1.4v1.2H36v-3H36.6z
					 M47.9,408.9l0.7,2l0.7-2h0.6l-1.1,3h-0.5l-0.7-1.9l-0.7,1.9h-0.5l-1.1-3H46l0.7,2l0.7-2H47.9z M44.3,408.9l1.3,3H45l-0.3-0.6
					h-1.4l-0.3,0.6h-0.6l1.3-3H44.3z M52.6,408.9v0.5H51v0.6h1.1v0.5H51v0.7h1.7v0.5h-2.3v-3H52.6z M54,408.9v3h-0.6v-3H54z
					 M44,409.6l-0.5,1.1h0.9L44,409.6z M43.2,405.3C43.2,405.3,43.2,405.3,43.2,405.3c0.1,0.1,0.1,0.1,0,0.1
					c-0.5,0.4-2.1,1.5-2.9,1.7c0,0-1.4,0.5-2.7-1.6C37.6,405.5,41.8,405.4,43.2,405.3z M46.8,405.3c1.4,0,5.5,0.2,5.5,0.2
					c-1.2,2.1-2.7,1.6-2.7,1.6c-0.8-0.2-2.4-1.3-2.9-1.7C46.8,405.4,46.8,405.4,46.8,405.3C46.8,405.3,46.8,405.3,46.8,405.3z
					 M36.2,400.7c0,0,4.7,2.5,7.1,4.1c0,0,0,0,0,0.1c0,0,0,0-0.1,0c-0.9,0-4.2,0-4.2,0c0,0-0.4,0-1-0.2c0,0-1.2-0.4-1.8-1.7
					C36.3,403,35.7,402,36.2,400.7z M53.8,400.7c0.4,1.2-0.1,2.3-0.1,2.3c-0.6,1.3-1.8,1.7-1.8,1.7c-0.5,0.2-1,0.2-1,0.2
					c-0.1,0-2.7,0-3.9,0l-0.4,0c0,0-0.1,0-0.1,0c0,0,0-0.1,0-0.1C49.1,403.2,53.8,400.7,53.8,400.7z M38.8,396.2c0,0,2.9,3.4,5,7.9
					c0,0,0,0.1,0,0.1c0,0,0,0-0.1,0c-0.8-0.4-4.1-2-5.5-3.3c0,0-0.9-0.7-0.9-1.8C37.2,397.6,38.8,396.2,38.8,396.2z M51.2,396.2
					c0,0,1.6,1.4,1.5,2.9c0,1.1-0.9,1.8-0.9,1.8c-1.4,1.3-4.7,2.9-5.5,3.3c0,0-0.1,0-0.1,0c0,0,0-0.1,0-0.1
					C48.3,399.7,51.2,396.2,51.2,396.2z M43.7,393.9c0,0,1.6,2.1,0.8,9.9c0,0,0,0.1,0,0.1c0,0-0.1,0-0.1,0c-0.5-0.7-2.9-4.2-3.4-6.3
					c0,0-0.3-1,0-1.7c0,0,0.4-1.3,1.8-1.7C42.8,394.1,43.2,394,43.7,393.9z M46.3,393.9c0.4,0.1,0.9,0.2,0.9,0.2
					c1.5,0.3,1.8,1.7,1.8,1.7c0.3,0.7,0,1.7,0,1.7c-0.5,2.1-2.9,5.6-3.4,6.3c0,0,0,0-0.1,0c0,0,0,0,0-0.1
					C44.7,396,46.3,393.9,46.3,393.9z"/>
				<path id="Fill-31" class="st6" d="M42.1,432.9v1.7c0,0.8-0.5,1.3-1.3,1.3c-0.8,0-1.3-0.5-1.3-1.3l0,0v-1.7h0.6v1.7
					c0,0.5,0.2,0.8,0.7,0.8c0.4,0,0.7-0.3,0.7-0.7l0,0v-1.7H42.1z M36.6,432.9v1.2H38v-1.2h0.6v3H38v-1.2h-1.4v1.2H36v-3H36.6z
					 M47.9,432.9l0.7,2l0.7-2h0.6l-1.1,3h-0.5l-0.7-1.9l-0.7,1.9h-0.5l-1.1-3H46l0.7,2l0.7-2H47.9z M44.3,432.9l1.3,3H45l-0.3-0.6
					h-1.4l-0.3,0.6h-0.6l1.3-3H44.3z M52.6,432.9v0.5H51v0.6h1.1v0.5H51v0.7h1.7v0.5h-2.3v-3H52.6z M54,432.9v3h-0.6v-3H54z
					 M44,433.6l-0.5,1.1h0.9L44,433.6z M43.2,429.3C43.2,429.3,43.2,429.3,43.2,429.3c0.1,0.1,0.1,0.1,0,0.1
					c-0.5,0.4-2.1,1.5-2.9,1.7c0,0-1.4,0.5-2.7-1.6C37.6,429.5,41.8,429.4,43.2,429.3z M46.8,429.3c1.4,0,5.5,0.2,5.5,0.2
					c-1.2,2.1-2.7,1.6-2.7,1.6c-0.8-0.2-2.4-1.3-2.9-1.7C46.8,429.4,46.8,429.4,46.8,429.3C46.8,429.3,46.8,429.3,46.8,429.3z
					 M36.2,424.7c0,0,4.7,2.5,7.1,4.1c0,0,0,0,0,0.1c0,0,0,0-0.1,0c-0.9,0-4.2,0-4.2,0c0,0-0.4,0-1-0.2c0,0-1.2-0.4-1.8-1.7
					C36.3,427,35.7,426,36.2,424.7z M53.8,424.7c0.4,1.2-0.1,2.3-0.1,2.3c-0.6,1.3-1.8,1.7-1.8,1.7c-0.5,0.2-1,0.2-1,0.2
					c-0.1,0-2.7,0-3.9,0l-0.4,0c0,0-0.1,0-0.1,0c0,0,0-0.1,0-0.1C49.1,427.2,53.8,424.7,53.8,424.7z M38.8,420.2c0,0,2.9,3.4,5,7.9
					c0,0,0,0.1,0,0.1c0,0,0,0-0.1,0c-0.8-0.4-4.1-2-5.5-3.3c0,0-0.9-0.7-0.9-1.8C37.2,421.6,38.8,420.2,38.8,420.2z M51.2,420.2
					c0,0,1.6,1.4,1.5,2.9c0,1.1-0.9,1.8-0.9,1.8c-1.4,1.3-4.7,2.9-5.5,3.3c0,0-0.1,0-0.1,0c0,0,0-0.1,0-0.1
					C48.3,423.7,51.2,420.2,51.2,420.2z M43.7,417.9c0,0,1.6,2.1,0.8,9.9c0,0,0,0.1,0,0.1c0,0-0.1,0-0.1,0c-0.5-0.7-2.9-4.2-3.4-6.3
					c0,0-0.3-1,0-1.7c0,0,0.4-1.3,1.8-1.7C42.8,418.1,43.2,418,43.7,417.9z M46.3,417.9c0.4,0.1,0.9,0.2,0.9,0.2
					c1.5,0.3,1.8,1.7,1.8,1.7c0.3,0.7,0,1.7,0,1.7c-0.5,2.1-2.9,5.6-3.4,6.3c0,0,0,0-0.1,0c0,0,0,0,0-0.1
					C44.7,420,46.3,417.9,46.3,417.9z"/>
				<path id="Fill-25" class="st2" d="M-6.2,404.6l2.4-0.1v-0.9l-1.6,0.1V400l-1.3,0.1v3.7l-3.8,0.2v0.8l2.6-0.2l-1.1,1.5l-1.4,0.1
					v0.8l2.4-0.1L-6.2,404.6z M-3,402.9v0.8h0.9l2.4-1.2l2.4,0.9h0.9v-0.9H3l-1.6-0.6l2.1-1.1v-1.3l-4.3,0.2l-1-0.5l-1.3,2.1
					l1.1,0.4l0.7-1.1l3.6-0.2v0.2l-2,1l-1.5-0.6l-0.5,0.8l0.9,0.4l-1.5,0.8L-3,402.9z M3,404.8l-1.3,0.1l0.9,1.6l1.3-0.1L3,404.8z
					 M-3,406.7l1.3-0.1l0.9-1.7l-1.3,0.1L-3,406.7z M-6,404.8l1,2l1.4-0.1l-1-2L-6,404.8z M-7.4,403.4l-1-1.3l-1.4,0.1l1,1.3
					L-7.4,403.4z M-7.4,401.7l-1-1.3l-1.4,0.1l1,1.3L-7.4,401.7z M3.7,404.5v-0.8L1,403.9v-0.4l-1.3,0.1v0.3L-3,404v0.8l2.7-0.1v1.9
					l1.3-0.1v-1.9L3.7,404.5z M-8.8,411.9c-0.9,0-1.7-0.3-2.3-0.9c-0.6-0.6-0.9-1.4-0.9-2.3v-11.6c0-0.9,0.3-1.7,0.9-2.3
					c0.6-0.6,1.4-0.9,2.3-0.9H2.8c0.9,0,1.7,0.3,2.3,0.9c0.6,0.6,0.9,1.4,0.9,2.3v11.6c0,0.9-0.3,1.7-0.9,2.3
					c-0.6,0.6-1.4,0.9-2.3,0.9H-8.8z M5.5,397.3v-0.2c0-0.8-0.3-1.4-0.8-1.9s-1.1-0.8-1.9-0.8H-8.8c-0.4,0-0.7,0.1-1.1,0.2
					c-0.3,0.1-0.6,0.3-0.9,0.6s-0.4,0.5-0.6,0.9c-0.1,0.3-0.2,0.7-0.2,1.1v1.1L5.5,397.3z M5.5,408.4l-16.9,1c0.2,0.6,0.5,1.1,1,1.5
					c0.5,0.4,1,0.6,1.7,0.6H2.9c0.8,0,1.4-0.3,1.9-0.8s0.8-1.1,0.8-1.9v-0.4H5.5z"/>
				<path id="Fill-27" class="st2" d="M29.2,395.8c0.9,0.7,1.5,1.5,1.8,2.4s0.3,2,0.1,3.1c0,0.2-0.1,0.4-0.3,0.6
					c-0.1,0.2-0.3,0.2-0.5,0.2s-0.4-0.1-0.6-0.2c-0.2-0.2-0.2-0.4-0.2-0.6c0.1-0.1,0.1-0.7,0.1-1.7s-0.4-1.9-1.3-2.6
					c-1-0.6-1.7-0.8-2.3-0.8s-1,0.1-1,0.1c-0.2,0-0.4-0.1-0.6-0.2c-0.2-0.2-0.2-0.3-0.2-0.6c0-0.2,0.1-0.4,0.2-0.5
					c0.2-0.1,0.3-0.2,0.5-0.3c0.8-0.1,1.5-0.1,2.3,0.1C28,395,28.6,395.3,29.2,395.8L29.2,395.8z M28,398.3c0.2,0.2,0.4,0.6,0.5,1
					s0.1,1-0.1,1.6c-0.1,0.3-0.3,0.5-0.7,0.5c-0.2,0-0.3-0.1-0.5-0.2c-0.1-0.2-0.2-0.3-0.1-0.5c0-0.2,0-0.4,0-0.6
					c0-0.2-0.1-0.4-0.2-0.6c-0.1-0.2-0.3-0.3-0.5-0.4c-0.2-0.1-0.4-0.2-0.7-0.1c-0.6,0-0.9-0.2-0.9-0.6c0-0.4,0.3-0.7,0.8-0.8
					c0.3-0.1,0.7,0,1.2,0.1C27.2,397.6,27.7,397.9,28,398.3L28,398.3z M22,405.4c0.1,0.8-0.1,1.5-0.6,2.1c-0.5,0.6-1.2,1.1-2.1,1.3
					c-0.9,0.2-1.7,0-2.4-0.3c-0.7-0.4-1.2-1-1.3-1.7c-0.1-0.8,0.1-1.5,0.6-2.1s1.2-1.1,2.1-1.2c0.9-0.2,1.7-0.1,2.4,0.3
					C21.3,404,21.8,404.6,22,405.4L22,405.4z M17.9,407.4c0.3-0.1,0.6-0.2,0.7-0.5c0.2-0.2,0.2-0.5,0.2-0.7
					c-0.1-0.3-0.2-0.5-0.5-0.6s-0.5-0.2-0.9-0.1c-0.3,0.1-0.6,0.2-0.7,0.5c-0.2,0.2-0.2,0.5-0.2,0.8c0.1,0.3,0.2,0.5,0.5,0.6
					C17.3,407.5,17.6,407.5,17.9,407.4z M19.5,405.8c0.1,0,0.2-0.1,0.3-0.2c0.1-0.1,0.1-0.2,0.1-0.3s-0.1-0.2-0.2-0.2
					c-0.1,0-0.2-0.1-0.4,0s-0.2,0.1-0.3,0.2s-0.1,0.2-0.1,0.3s0.1,0.2,0.2,0.2C19.2,405.8,19.4,405.9,19.5,405.8L19.5,405.8z
					 M28.4,404.1c0.3,0.6,0.2,1.4-0.1,2.2c-0.3,0.8-1,1.7-1.9,2.6c-1.1,1-2.8,1.7-5.3,2.1c-2.5,0.4-5,0-7.5-1.1
					c-2.2-1.4-3.2-2.8-2.9-4.4c0.3-1.6,0.7-2.7,1.2-3.2c0.4-0.5,1.1-1.3,2-2.3c0.9-1,1.9-1.7,2.9-2.3c0.9-0.4,1.7-0.7,2.2-0.7
					c0.6,0,0.9,0.1,1.1,0.2c0.2,0.1,0.4,0.2,0.5,0.4c0.1,0.2,0.2,0.4,0.3,0.8c0,0.4-0.1,0.8-0.2,1c-0.1,0.3-0.2,0.4-0.1,0.6
					c0.1,0,0.5-0.1,1.2-0.3c0.6-0.3,1.3-0.4,2.1-0.4c0.9,0.1,1.5,0.3,1.8,0.6c0.2,0.3,0.4,0.6,0.4,0.7c0,0.2,0,0.4,0,0.7
					c0,0.3-0.1,0.5-0.3,0.7c-0.2,0.2-0.2,0.4-0.1,0.5c0.1,0.1,0.3,0.2,0.5,0.2s0.6,0.1,1.1,0.3C27.7,403.1,28.1,403.5,28.4,404.1
					L28.4,404.1z M19.8,409.4c1.7-0.3,3.1-0.8,4.1-1.7s1.5-1.9,1.4-3c-0.2-1.1-0.9-2-2.1-2.5c-1.2-0.6-2.7-0.8-4.4-0.6
					c-1.7,0.3-3.1,0.8-4.1,1.7s-1.5,1.9-1.4,3c0.2,1.1,0.9,2,2.1,2.6C16.6,409.5,18.1,409.6,19.8,409.4L19.8,409.4z"/>
				<path id="Fill-29" class="st6" d="M-24.3,428.1c0.2-0.1,0.2-0.3,0.2-0.5c0-0.2-0.1-0.4-0.2-0.5c-0.1-0.1-0.4-0.2-0.7-0.2
					c-0.2,0-0.4,0.1-0.5,0.2s-0.2,0.3-0.2,0.5c0,0.2,0.1,0.4,0.2,0.5s0.3,0.2,0.5,0.2C-24.6,428.3-24.4,428.3-24.3,428.1
					L-24.3,428.1z M-20.3,428.1c0.2-0.1,0.2-0.3,0.2-0.5c0-0.2-0.1-0.4-0.2-0.5c-0.2-0.1-0.4-0.2-0.7-0.2c-0.2,0-0.4,0.1-0.5,0.2
					s-0.2,0.3-0.2,0.5c0,0.2,0.1,0.4,0.2,0.5s0.3,0.2,0.5,0.2C-20.6,428.3-20.4,428.3-20.3,428.1L-20.3,428.1z M-16.8,429.3
					c0,0.8-0.3,1.6-0.7,2.3c-0.5,0.7-1.1,1.3-1.8,1.9l0.5,1.8l-2-1.1c-0.4,0.1-0.7,0.2-1.1,0.2c-0.4,0.1-0.7,0.1-1.1,0.1
					c-1.8,0-3.2-0.5-4.4-1.5c-1.2-1-1.8-2.2-1.8-3.7s0.6-2.7,1.8-3.7c1.2-1,2.6-1.5,4.4-1.5c1.7,0,3.1,0.6,4.3,1.5
					C-17.4,426.5-16.8,427.8-16.8,429.3L-16.8,429.3z M-27.3,421.6c-0.3,0-0.5,0.1-0.7,0.2c-0.2,0.2-0.3,0.4-0.3,0.7
					c0,0.3,0.1,0.5,0.3,0.7s0.5,0.2,0.7,0.2c0.3,0,0.5-0.1,0.7-0.2c0.2-0.2,0.2-0.4,0.2-0.7c0-0.3-0.1-0.5-0.2-0.7
					C-26.8,421.7-27,421.6-27.3,421.6L-27.3,421.6z M-31.7,423.2c0.2-0.2,0.2-0.4,0.2-0.7c0-0.3-0.1-0.5-0.2-0.7
					c-0.2-0.2-0.4-0.2-0.7-0.2c-0.3,0-0.5,0.1-0.7,0.2c-0.2,0.2-0.3,0.4-0.3,0.7c0,0.3,0.1,0.5,0.3,0.7c0.2,0.2,0.5,0.2,0.8,0.2
					C-32.1,423.5-31.9,423.4-31.7,423.2L-31.7,423.2z M-23.4,423.6L-23.4,423.6c-1.8,0-3.2,0.6-4.4,1.7c-1.1,1.1-1.7,2.4-1.8,4.1
					c0,0.5,0.1,1,0.2,1.5c-0.2,0-0.5,0-0.7,0c-0.4,0-0.9,0-1.3-0.1s-0.8-0.2-1.3-0.2l-2.5,1.3l0.7-2.2c-0.9-0.6-1.6-1.4-2.1-2.2
					c-0.5-0.8-0.8-1.7-0.8-2.7c0.1-1.8,0.8-3.2,2.1-4.4c1.4-1.2,3.1-1.8,5.1-1.8c1.8,0,3.4,0.5,4.8,1.4c1.4,0.9,2.2,2.1,2.6,3.6
					H-23.4L-23.4,423.6z"/>
				<path id="Fill-33" class="st6" d="M-6.2,428.6l2.4-0.1v-0.9l-1.6,0.1V424l-1.3,0.1v3.7l-3.8,0.2v0.8l2.6-0.2l-1.1,1.5l-1.4,0.1
					v0.8l2.4-0.1L-6.2,428.6z M-3,426.9v0.8h0.9l2.4-1.2l2.4,0.9h0.9v-0.9H3l-1.6-0.6l2.1-1.1v-1.5l-4.3,0.2l-1-0.5l-1.3,2.1
					l1.1,0.4l0.7-1.1l3.6-0.2v0.2l-2,1l-1.5-0.6l-0.5,0.8l0.9,0.4l-1.5,0.8L-3,426.9z M3,428.8l-1.3,0.1l0.9,1.6l1.3-0.1L3,428.8z
					 M-3,430.7l1.3-0.1l0.9-1.7l-1.3,0.1L-3,430.7z M-6,428.8l1,2l1.4-0.1l-1-2L-6,428.8z M-7.4,427.4l-1-1.3l-1.4,0.1l1,1.3
					L-7.4,427.4z M-7.4,425.7l-1-1.3l-1.4,0.1l1,1.3L-7.4,425.7z M3.7,428.5v-0.8L1,427.9v-0.4l-1.3,0.1v0.3L-3,428v0.8l2.7-0.1v1.9
					l1.3-0.1v-1.9L3.7,428.5z M-8.8,435.9c-0.9,0-1.7-0.3-2.3-0.9c-0.6-0.6-0.9-1.4-0.9-2.3v-11.6c0-0.9,0.3-1.7,0.9-2.3
					c0.6-0.6,1.4-0.9,2.3-0.9H2.8c0.9,0,1.7,0.3,2.3,0.9c0.6,0.6,0.9,1.4,0.9,2.3v11.6c0,0.9-0.3,1.7-0.9,2.3
					c-0.6,0.6-1.4,0.9-2.3,0.9H-8.8L-8.8,435.9z M5.5,421.3v-0.1c0-0.8-0.3-1.4-0.8-1.9s-1.1-0.8-1.9-0.8H-8.8
					c-0.4,0-0.7,0.1-1.1,0.2c-0.3,0.1-0.6,0.3-0.9,0.6c-0.3,0.3-0.4,0.5-0.6,0.9c-0.1,0.3-0.2,0.7-0.2,1.1v1.1L5.5,421.3z
					 M5.5,432.4l-16.9,1c0.2,0.6,0.5,1.1,1,1.5c0.5,0.4,1,0.6,1.7,0.6H2.9c0.8,0,1.4-0.3,1.9-0.8s0.8-1.1,0.8-1.9v-0.4H5.5z"/>
				<path id="Fill-35" class="st6" d="M29.2,419.8c0.9,0.7,1.5,1.5,1.8,2.4s0.3,2,0.1,3.1c0,0.2-0.1,0.4-0.3,0.6
					c-0.1,0.2-0.3,0.2-0.5,0.2s-0.4-0.1-0.6-0.2c-0.2-0.2-0.2-0.4-0.2-0.6c0.1-0.1,0.1-0.7,0.1-1.7s-0.4-1.9-1.3-2.6
					c-1-0.6-1.7-0.8-2.3-0.8s-0.9,0.1-0.9,0.1c-0.2,0-0.4-0.1-0.6-0.2c-0.2-0.2-0.2-0.3-0.2-0.6c0-0.2,0.1-0.4,0.2-0.5
					c0.2-0.1,0.3-0.2,0.5-0.3c0.8-0.1,1.5-0.1,2.3,0.1C27.9,419,28.6,419.3,29.2,419.8L29.2,419.8z M28,422.3c0.2,0.2,0.4,0.6,0.5,1
					s0.1,1-0.1,1.6c-0.1,0.3-0.3,0.5-0.7,0.5c-0.2,0-0.3-0.1-0.5-0.2c-0.1-0.2-0.2-0.3-0.1-0.5c0-0.2,0-0.4,0-0.6
					c0-0.2-0.1-0.4-0.2-0.6c-0.1-0.2-0.3-0.3-0.5-0.4c-0.2-0.1-0.4-0.2-0.7-0.1c-0.6,0-0.9-0.2-0.9-0.6c0-0.4,0.3-0.7,0.8-0.8
					c0.3-0.1,0.7,0,1.2,0.1C27.2,421.6,27.7,421.9,28,422.3L28,422.3z M22,429.4c0.1,0.8-0.1,1.5-0.6,2.1c-0.5,0.6-1.2,1.1-2.1,1.3
					c-0.9,0.2-1.7,0-2.4-0.3c-0.7-0.4-1.2-1-1.3-1.7c-0.1-0.8,0.1-1.5,0.6-2.1s1.2-1.1,2.1-1.2c0.9-0.2,1.7-0.1,2.4,0.3
					C21.3,428,21.8,428.6,22,429.4L22,429.4z M17.9,431.4c0.3-0.1,0.6-0.2,0.7-0.5c0.2-0.2,0.2-0.5,0.2-0.7
					c-0.1-0.3-0.2-0.5-0.5-0.6s-0.5-0.2-0.9-0.1c-0.3,0.1-0.6,0.2-0.7,0.5c-0.2,0.2-0.2,0.5-0.2,0.8c0,0.3,0.2,0.5,0.5,0.6
					C17.3,431.5,17.6,431.5,17.9,431.4z M19.5,429.8c0.1,0,0.2-0.1,0.3-0.2c0.1-0.1,0.1-0.2,0.1-0.3s-0.1-0.2-0.2-0.2
					c-0.1,0-0.2-0.1-0.4,0c-0.1,0-0.2,0.1-0.3,0.2s-0.1,0.2-0.1,0.3s0.1,0.2,0.2,0.2C19.2,429.8,19.4,429.9,19.5,429.8L19.5,429.8z
					 M28.4,428.1c0.3,0.6,0.2,1.4-0.1,2.2c-0.3,0.8-1,1.7-1.9,2.6c-1.1,1-2.8,1.7-5.3,2.1c-2.5,0.4-5,0-7.5-1.1
					c-2.2-1.4-3.2-2.8-2.9-4.4c0.3-1.6,0.7-2.7,1.2-3.2c0.4-0.5,1.1-1.3,2-2.3c0.9-1,1.9-1.7,2.9-2.3c0.9-0.4,1.7-0.7,2.2-0.7
					c0.6,0,0.9,0.1,1.1,0.2c0.2,0.1,0.4,0.2,0.5,0.4c0.1,0.2,0.2,0.4,0.3,0.8c0,0.4-0.1,0.8-0.2,1c-0.1,0.2-0.2,0.4-0.1,0.6
					c0.1,0,0.5-0.1,1.2-0.3c0.6-0.3,1.3-0.4,2.1-0.4c0.9,0.1,1.5,0.3,1.8,0.6c0.2,0.3,0.4,0.6,0.4,0.7c0,0.2,0,0.4,0,0.7
					c0,0.3-0.1,0.5-0.3,0.7c-0.2,0.2-0.2,0.4-0.1,0.5c0.1,0.1,0.3,0.2,0.5,0.2s0.6,0.1,1.1,0.3C27.7,427.1,28.1,427.5,28.4,428.1
					L28.4,428.1z M19.8,433.4c1.7-0.3,3.1-0.8,4.1-1.7s1.5-1.9,1.4-3c-0.2-1.1-0.9-2-2.1-2.5c-1.2-0.6-2.7-0.8-4.4-0.6
					c-1.7,0.3-3.1,0.8-4.1,1.7s-1.5,1.9-1.4,3c0.2,1.1,0.9,2,2.1,2.6C16.6,433.5,18.1,433.6,19.8,433.4L19.8,433.4z"/>
				<path id="Fill-37" class="st7" d="M83,403c0.2,0,0.4,0.1,0.6,0.2c0.2,0.1,0.2,0.3,0.2,0.5s-0.1,0.4-0.2,0.5
					c-0.1,0.1-0.3,0.2-0.6,0.2c-0.2,0-0.4-0.1-0.6-0.2c-0.2-0.1-0.2-0.3-0.2-0.5s0.1-0.4,0.2-0.5C82.6,403.1,82.8,403,83,403L83,403
					z M83.7,397.6l-0.2,4.7h-1.1l-0.2-4.7H83.7z M78.8,405.1c-1.1-1.1-1.7-2.5-1.8-4.2c0-1.7,0.6-3.1,1.8-4.2s2.5-1.8,4.2-1.8
					s3.1,0.6,4.2,1.8c1.1,1.1,1.7,2.5,1.8,4.2c0,1.7-0.6,3.1-1.8,4.2c-1.1,1.1-2.5,1.7-4.2,1.8C81.3,406.9,79.9,406.3,78.8,405.1
					L78.8,405.1z M86.7,404.6c1-1,1.5-2.2,1.5-3.7s-0.6-2.7-1.5-3.7c-1-1-2.2-1.5-3.7-1.5s-2.7,0.6-3.7,1.5c-1,1-1.5,2.2-1.5,3.7
					s0.6,2.7,1.5,3.7c1,1,2.2,1.5,3.7,1.5S85.7,405.6,86.7,404.6L86.7,404.6z"/>
				<path id="Fill-39" class="st8" d="M108.8,394c-0.1-0.1-0.1-0.3-0.1-0.5c0-0.2,0.1-0.3,0.3-0.3s0.3,0,0.5,0.1l3.7,3.7
					c0.1,0.1,0.1,0.2,0.1,0.3s0,0.2-0.1,0.3l-3.7,3.7c-0.1,0.1-0.3,0.1-0.5,0.1s-0.3-0.1-0.3-0.3c0-0.2,0-0.3,0.1-0.4l3.4-3.4
					L108.8,394z"/>
			</g>
		</g>
		<g id="编组_1_" transform="translate(0.000000, 36.000000)">
			<rect id="矩形" x="-158" y="390.9" class="st9" width="24" height="24"/>
			<path id="形状_1_" class="st2" d="M-148.5,399.1c1.1,0,2-1.2,2-2.7s-0.9-2.7-2-2.7s-2,1.2-2,2.7
				C-150.4,397.9-149.5,399.1-148.5,399.1z M-143.6,399.4c1.1,0,2.3-1.2,2.4-2.6c0-1.2-0.9-2.6-1.9-2.6c-1.1,0-2.1,1.2-2.2,2.6
				C-145.4,398.2-144.6,399.4-143.6,399.4z M-149.5,406.7c-0.6,0-1.1,0.6-1.1,1.2c0,0.6,0.5,1.1,1.1,1.2l0,0h1.2v-2.4H-149.5
				L-149.5,406.7z M-139.7,407.1L-139.7,407.1c-0.3-0.3-0.5-0.6-0.8-0.7c-0.7-0.6-1.4-1.3-1.8-1.8c-0.7-0.7-1.6-1.8-1.9-2.4l0,0
				c-0.5-0.7-1.3-1.1-2.2-1.1c-1,0-1.9,0.6-2.4,1.4l0,0c0,0-0.5,1-1.4,1.8c-0.9,0.9-2.6,1.8-3.1,3.3c0,0.1,0,0.2,0,0.2
				c-0.1,0.3-0.2,0.6-0.2,0.9c0,1.7,1.4,3,3,3c0.1,0,0.2,0,0.3,0l0,0c0,0,1.7-0.2,2.3-0.3c0.6-0.1,1.8-0.4,3.2,0
				c1.4,0.4,2,0.5,2.5,0.5l0,0c1.7,0,3-1.4,3-3C-139.2,408.2-139.4,407.6-139.7,407.1L-139.7,407.1z M-147.2,410.2h-2.4l0,0
				c-1.1-0.1-2-1.1-2-2.2c0-1.1,0.9-2.1,2-2.2l0,0h1.4v-1.7h1.1L-147.2,410.2L-147.2,410.2z M-142.4,410.1h-2.4
				c-1,0-1.8-0.8-1.8-1.8v-0.1l0,0v-2.6h1.1v2.7c0,0.4,0.3,0.7,0.7,0.7h1.4v-3.4h1.1L-142.4,410.1L-142.4,410.1z M-140,399.2
				c-0.5,0-0.9,0.1-1.3,0.5c-0.5,0.5-0.8,1.3-0.8,2.1c0,0.7,0.2,1.6,0.6,2s0.9,0.5,1.5,0.5c0.7,0,1.3-0.2,1.7-0.8
				c0.3-0.4,0.4-1.2,0.4-1.8C-137.9,400.4-138.8,399.2-140,399.2z M-151,402.2c0.3-0.4,0.4-1.1,0.4-1.7c0-1.5-0.9-2.7-2-2.7
				c-1.1,0-2,1.2-2,2.7s0.9,2.7,2,2.7C-152,403.2-151.3,402.8-151,402.2z"/>
		</g>
		<g id="编组_2_" transform="translate(24.000000, 36.000000)">
			<rect id="矩形_1_" x="-158" y="390.9" class="st9" width="24" height="24"/>
			<path id="形状_2_" class="st6" d="M-148.5,399.1c1.1,0,2-1.2,2-2.7s-0.9-2.7-2-2.7s-2,1.2-2,2.7
				C-150.4,397.9-149.5,399.1-148.5,399.1z M-149.5,406.7c-0.6,0-1.1,0.6-1.1,1.2c0,0.6,0.5,1.1,1.1,1.2l0,0h1.2v-2.4H-149.5
				L-149.5,406.7z M-143.6,399.4c1.1,0,2.3-1.2,2.4-2.6c0-1.2-0.9-2.6-1.9-2.6s-2.1,1.2-2.2,2.6
				C-145.4,398.2-144.6,399.4-143.6,399.4z M-140,399.2c-0.5,0-0.9,0.1-1.3,0.5c-0.5,0.5-0.8,1.3-0.8,2.1c0,0.7,0.2,1.6,0.6,2
				s0.9,0.5,1.5,0.5c0.7,0,1.3-0.2,1.7-0.8c0.3-0.4,0.4-1.2,0.4-1.8C-137.9,400.4-138.8,399.2-140,399.2z M-139.7,407.1
				L-139.7,407.1c-0.3-0.3-0.5-0.6-0.8-0.7c-0.7-0.6-1.4-1.3-1.8-1.8c-0.7-0.7-1.6-1.8-1.9-2.4l0,0c-0.5-0.7-1.3-1.1-2.2-1.1
				c-1,0-1.9,0.6-2.4,1.4l0,0c0,0-0.5,1-1.4,1.8c-0.9,0.9-2.6,1.8-3.1,3.3c0,0.1,0,0.2,0,0.2c-0.1,0.3-0.2,0.6-0.2,0.9
				c0,1.7,1.4,3,3,3c0.1,0,0.2,0,0.3,0l0,0c0,0,1.7-0.2,2.3-0.3c0.6-0.1,1.8-0.4,3.2,0c1.4,0.4,2,0.5,2.5,0.5l0,0c1.7,0,3-1.4,3-3
				C-139.2,408.2-139.4,407.6-139.7,407.1L-139.7,407.1z M-147.2,410.2h-2.4l0,0c-1.1-0.1-2-1.1-2-2.2c0-1.1,0.9-2.1,2-2.2l0,0h1.4
				v-1.7h1.1L-147.2,410.2C-147.1,410.2-147.2,410.2-147.2,410.2z M-142.4,410.1h-2.4c-1,0-1.8-0.8-1.8-1.8v-0.1l0,0v-2.6h1.1v2.7
				c0,0.4,0.3,0.7,0.7,0.7h1.4v-3.4h1.1L-142.4,410.1C-142.3,410.1-142.4,410.1-142.4,410.1z M-151,402.2c0.3-0.4,0.4-1.1,0.4-1.7
				c0-1.5-0.9-2.7-2-2.7c-1.1,0-2,1.2-2,2.7s0.9,2.7,2,2.7C-152,403.2-151.3,402.8-151,402.2z"/>
		</g>
	</g>
</g>
<g>
	<rect x="-98" y="430.9" class="st9" width="16" height="8"/>
	<path id="Fill-17_1_" class="st5" d="M-93.7,437.2c-0.1,0.1-0.3,0.2-0.5,0.1c-0.2,0-0.3-0.2-0.3-0.3c0-0.2,0-0.3,0.1-0.5l4-4
		c0.1-0.1,0.2-0.1,0.4-0.1c0.1,0,0.3,0,0.4,0.1l4,4c0.1,0.1,0.2,0.3,0.1,0.5c0,0.2-0.2,0.3-0.3,0.3c-0.2,0-0.3,0-0.5-0.1l-3.8-3.7
		L-93.7,437.2z"/>
</g>
<g>
	<rect x="-98" y="439.9" class="st9" width="16" height="8"/>
	<path id="Fill-17_2_" class="st5" d="M-90.1,445.3l3.8-3.7c0.2-0.1,0.3-0.1,0.5-0.1c0.1,0,0.3,0.1,0.3,0.3c0.1,0.2,0,0.4-0.1,0.5
		l-4,4c-0.1,0.1-0.3,0.1-0.4,0.1c-0.2,0-0.3,0-0.4-0.1l-4-4c-0.1-0.2-0.1-0.3-0.1-0.5c0-0.1,0.1-0.3,0.3-0.3c0.2-0.1,0.4,0,0.5,0.1
		L-90.1,445.3z"/>
</g>
</svg>
