<?xml version="1.0" encoding="UTF-8"?>
<svg width="160px" height="160px" viewBox="0 0 160 160" version="1.1" xmlns="http://www.w3.org/2000/svg" xmlns:xlink="http://www.w3.org/1999/xlink">
    <!-- Generator: Sketch 61.2 (89653) - https://sketch.com -->
    <title>ic_click_alipay</title>
    <desc>Created with Sketch.</desc>
    <g id="ic_click_alipay" stroke="none" stroke-width="1" fill="none" fill-rule="evenodd">
        <g id="编组">
            <g id="Group" fill="#00AAEF">
                <g id="grid/item/entrances/icon">
                    <circle id="Oval-3-Copy-2" cx="80" cy="80" r="80"></circle>
                </g>
            </g>
            <path d="M81.9782314,45 L81.978,55.75 L106.489116,55.7503878 L106.489116,59.190512 L81.978,59.19 L81.978,67.36 L102.618976,67.3608067 C99.8185151,77.2652847 94.1605611,87.320141 94.0212854,87.5668994 L94.0186658,87.5715359 L131,100.472001 L131,114.662513 C131,114.662513 88.620977,96.0623465 88.4284641,96.1718461 C87.4029002,97.0257764 74.2203302,109.841612 60.9074712,111.652405 C38.9796276,114.860432 35.7818395,101.506555 35.1065404,97.8919082 C34.7724145,94.1674944 33.6535124,76.8701304 60.9074712,78.5412101 C71.1954826,79.2941982 84.98834,84.5614273 84.98834,84.5614273 C84.98834,84.5614273 88.7607482,77.9297205 90.1305431,70.8007729 L53.167192,70.8009308 L53.167192,67.3608067 L72.517,67.36 L72.517,59.19 L48.4370213,59.190512 L48.4370213,55.7503878 L72.517,55.75 L72.5178901,49.7292601 C72.5178901,47.1173618 74.6409754,45 77.2480608,45 L81.9782314,45 Z M55.7472851,83.7013962 C45.2058471,83.7013962 39.8367111,88.358863 39.8367111,94.8817996 C39.8367111,101.564336 45.3997556,106.932755 55.7472851,106.062203 C67.6247007,104.797423 80.2581694,91.871691 80.2581694,91.871691 C80.2581694,91.871691 66.2090329,83.7013962 55.7472851,83.7013962 Z" id="Rectangle-1" fill="#FFFFFF" fill-rule="nonzero"></path>
        </g>
    </g>
</svg>