<?xml version="1.0" encoding="UTF-8"?>
<svg width="160px" height="160px" viewBox="0 0 160 160" version="1.1" xmlns="http://www.w3.org/2000/svg" xmlns:xlink="http://www.w3.org/1999/xlink">
    <!-- Generator: Sketch 61.2 (89653) - https://sketch.com -->
    <title>ic_click_wechat</title>
    <desc>Created with Sketch.</desc>
    <g id="ic_click_wechat" stroke="none" stroke-width="1" fill="none" fill-rule="evenodd">
        <g id="bg"></g>
        <g id="分组" transform="translate(7.000000, 0.000000)" fill="#47CC47">
            <circle id="Oval-3-Copy-2" cx="73" cy="80" r="80"></circle>
        </g>
        <g id="Group-6" transform="translate(45.000000, 50.250000)" fill="#FFFFFF">
            <path d="M17.735465,18.2372345 C15.799436,18.2372345 13.8474068,16.9124146 13.8474068,14.9333628 C13.8474068,12.9473013 15.799436,11.6388373 17.735465,11.6388373 C19.6714939,11.6388373 20.9583703,12.9473013 20.9583703,14.9333628 C20.9583703,16.9124146 19.6714939,18.2372345 17.735465,18.2372345 M35.8065926,11.6388373 C37.7517645,11.6388373 39.0386409,12.9473013 39.0386409,14.9333628 C39.0386409,16.9124146 37.7517645,18.2372345 35.8065926,18.2372345 C33.8728493,18.2372345 31.9299631,16.9124146 31.9299631,14.9333628 C31.9299631,12.9473013 33.8728493,11.6388373 35.8065926,11.6388373 M49.6902289,18.7956682 C50.5290986,18.7956682 51.3565396,18.8587549 52.1771233,18.9522166 C49.943947,8.31627329 38.8214948,0.416421722 26.1241619,0.416421722 C11.9296638,0.416421722 0.302061187,10.3046713 0.302061187,22.8635894 C0.302061187,30.1138821 4.16954764,36.0673934 10.6359301,40.6844022 L8.05303434,48.623975 L17.0794551,43.99762 C20.3092178,44.651852 22.9012566,45.3224398 26.1241619,45.3224398 C26.9333169,45.3224398 27.7379004,45.2827186 28.5356266,45.2172954 C28.0304762,43.4532055 27.7379004,41.6050001 27.7379004,39.6866984 C27.7379004,28.1558591 37.4249025,18.7956682 49.6902289,18.7956682" id="Fill-1"></path>
            <path d="M58.4080737,36.0669261 C57.1303403,36.0669261 55.8434639,34.7584621 55.8434639,33.4266326 C55.8434639,32.1111589 57.1303403,30.7863391 58.4080737,30.7863391 C60.3441027,30.7863391 61.6401221,32.1111589 61.6401221,33.4266326 C61.6401221,34.7584621 60.3441027,36.0669261 58.4080737,36.0669261 M44.2044325,36.0669261 C42.9198419,36.0669261 41.6215367,34.7584621 41.6215367,33.4266326 C41.6215367,32.1111589 42.9198419,30.7863391 44.2044325,30.7863391 C46.1587475,30.7863391 47.4364809,32.1111589 47.4364809,33.4266326 C47.4364809,34.7584621 46.1587475,36.0669261 44.2044325,36.0669261 M73.2585817,39.3707978 C73.2585817,28.8166334 62.9269985,20.2134825 51.3245391,20.2134825 C39.0386409,20.2134825 29.3630676,28.8166334 29.3630676,39.3707978 C29.3630676,49.9413179 39.0386409,58.5257765 51.3245391,58.5257765 C53.8960062,58.5257765 56.4903307,57.8621983 59.0732265,57.2009567 L66.1567611,61.16607 L64.2138749,54.5700094 C69.3979525,50.5932133 73.2585817,45.3219725 73.2585817,39.3707978" id="Fill-4"></path>
        </g>
    </g>
</svg>