<?xml version="1.0" encoding="UTF-8"?>
<svg width="160px" height="160px" viewBox="0 0 160 160" version="1.1" xmlns="http://www.w3.org/2000/svg" xmlns:xlink="http://www.w3.org/1999/xlink">
    <!-- Generator: Sketch 61.2 (89653) - https://sketch.com -->
    <title>ic_click_qq</title>
    <desc>Created with Sketch.</desc>
    <defs>
        <path d="M8.36954388,23.7942858 C8.36954388,24.837633 7.45074548,24.0678691 6.69720746,26.0774628 C6.36052026,26.9740699 6.85383484,27.542377 6.69720746,30.9584376 C6.65527572,31.8774288 2.72479182,36.0371385 1.16591776,40.3572675 C-0.381856733,44.6438204 -0.593982001,49.1206381 1.79489384,50.8802761 C3.03188015,51.7930495 4.22446814,50.187613 5.12723382,48.5821764 C5.96710189,47.0899039 6.55661281,45.5963878 6.69720746,46.1311187 C6.82423597,46.6136202 6.98332992,47.1172622 7.17202274,47.6345833 C7.93789363,49.7100857 9.22051153,52.0069419 11.0815408,54.1558144 C11.4589264,54.5923041 8.78022827,55.3956442 7.17202274,58.1513741 C5.56505051,60.9071041 7.63327187,65.9174092 15.6225015,65.9174092 C25.9315429,65.9174092 28.2365552,62.262585 28.4462139,62.2787513 C29.2145514,62.3384422 29.2675827,62.2787513 30.0815517,62.2787513 C31.0768139,62.2787513 30.663663,62.3595827 31.5898611,62.2787513 C31.8204856,62.2600979 33.0229399,63.198986 34.9382338,64.1391177 C37.1519829,65.224746 40.316596,66.3116179 44.0349546,65.9174092 C55.8535386,64.6651438 54.046774,60.6708276 53.1181093,58.1513741 C52.1499794,55.5212438 48.7263762,54.2888754 48.8780705,54.1197511 C51.7084629,50.9660818 52.1573791,49.0286146 53.1181093,46.1311187 C53.3092687,45.5553503 54.0480072,47.0675198 55.0001044,48.5809328 C56.0163324,50.1963179 57.2767512,51.8129465 58.3669764,50.8802761 C59.2475429,50.1279221 61.0062094,46.9966368 59.2475429,40.3572675 C57.4864098,33.7191418 54.0837725,32.2044852 54.1577697,30.9584376 C54.3131638,28.3681012 54.2231339,26.5475287 54.0924056,26.0774628 C53.4646628,23.7942858 52.1499794,24.2979278 52.1499794,23.7942858 C52.1499794,10.6523389 42.349052,0 30.259145,0 C18.1704713,0 8.36954388,10.6523389 8.36954388,23.7942858 L8.36954388,23.7942858 Z" id="path-1"></path>
    </defs>
    <g id="ic_click_qq" stroke="none" stroke-width="1" fill="none" fill-rule="evenodd">
        <g id="bg"></g>
        <g id="grid/item/entrances/icon" fill="#506A7E">
            <circle id="Oval-3-Copy-2" cx="80" cy="80" r="80"></circle>
        </g>
        <g id="Page-1" transform="translate(50.000000, 47.666667)">
            <mask id="mask-2" fill="white">
                <use xlink:href="#path-1"></use>
            </mask>
            <use id="0" fill="#FFFFFF" fill-rule="nonzero" xlink:href="#path-1"></use>
        </g>
    </g>
</svg>